<svg viewBox="0 0 1080 1080" fill="none" xmlns="http://www.w3.org/2000/svg">      <defs>  <filter id="filter" x="-20%" y="-20%" width="140%" height="140%" filterUnits="objectBoundingBox" primitiveUnits="userSpaceOnUse" color-interpolation-filters="linearRGB">    <feMorphology operator="dilate" radius="20 20" in="SourceAlpha" result="morphology"/>    <feFlood flood-color="#ffffff" flood-opacity="1" result="flood"/>    <feComposite in="flood" in2="morphology" operator="in" result="composite"/>    <feMerge result="merge">          <feMergeNode in="composite" result="mergeNode"/>      <feMergeNode in="SourceGraphic" result="mergeNode1"/>      </feMerge>  </filter></defs>      <g id="notion-avatar" filter="url(#filter)">        <g id="notion-avatar-face" fill="#ffffff">      <!--?xml version="1.0" encoding="UTF-8"?-->    <title>Face/ 7</title>    <g id="Face/-7" stroke="none" stroke-width="1" fill-rule="evenodd" stroke-linecap="round" stroke-linejoin="round">        <path d="M532,379 C664.54834,379 772,486.45166 772,619 C772,751.54834 764.54834,919 572,919 C415.13263,919 351.668898,801.612202 313.752775,718.980575 L313.322946,718.989282 L312,719 C267.81722,719 232,683.18278 232,639 C232,599.134956 261.158843,566.080325 299.312086,560.00055 C325.599297,455.979213 419.809919,379 532,379 Z M295.858895,624.545187 L304.141105,655.454813" id="Path" stroke="#000000" stroke-width="24"/>    </g>    </g><g id="notion-avatar-nose">      <!--?xml version="1.0" encoding="UTF-8"?-->    <title>Nose/ 5</title>    <g id="Nose/-5" stroke="none" stroke-width="1" fill="none" fill-rule="evenodd" stroke-linecap="round" stroke-linejoin="round">        <path d="M673,568 C662.55102,590.836147 657.326531,613.414126 657.326531,635.733939 C657.326531,669.213657 673,686.992054 670.061224,702.552554 C668.102041,712.92622 653.081633,714.756867 625,708.044495" id="Path" stroke="#000000" stroke-width="16"/>    </g>    </g><g id="notion-avatar-mouth">      <!--?xml version="1.0" encoding="UTF-8"?-->    <title>Mouth/ 1</title>    <g id="Mouth/-1" stroke="none" stroke-width="1" fill="none" fill-rule="evenodd" stroke-linecap="round" stroke-linejoin="round">        <path d="M549,759 C575.12979,773.666667 603.12979,781 633,781 C662.87021,781 682.87021,773.666667 693,759" id="Path" stroke="#000000" stroke-width="16"/>    </g>    </g><g id="notion-avatar-eyes">      <!--?xml version="1.0" encoding="UTF-8"?-->    <title>Eyes/ 8</title>    <g id="Eyes/-8" stroke="none" stroke-width="1" fill="none" fill-rule="evenodd">        <path d="M570,516 C578.836556,516 586,526.745166 586,540 C586,553.254834 578.836556,564 570,564 C561.163444,564 554,553.254834 554,540 C554,526.745166 561.163444,516 570,516 Z M708,516 C716.836556,516 724,526.745166 724,540 C724,553.254834 716.836556,564 708,564 C699.163444,564 692,553.254834 692,540 C692,526.745166 699.163444,516 708,516 Z" id="Combined-Shape" fill="#000000"/>    </g>    </g><g id="notion-avatar-eyebrows">      <!--?xml version="1.0" encoding="UTF-8"?-->    <title>Eyebrows/ 2</title>    <g id="Eyebrows/-2" stroke="none" stroke-width="1" fill="none" fill-rule="evenodd" stroke-linecap="round" stroke-linejoin="round">        <path d="M570,485.718496 C590.574398,488.795594 605.574398,494.964927 615,504.226493 C600,498.618009 585,495.813767 570,495.813767 C555,495.813767 536.666667,498.618009 515,504.226493 L525,490.766132 C534.425602,484.323943 549.425602,482.641398 570,485.718496 Z M708,485.718496 C728.574398,482.641398 743.574398,484.323943 753,490.766132 L753,490.766132 L763,504.226493 C741.333333,498.618009 723,495.813767 708,495.813767 C693,495.813767 678,498.618009 663,504.226493 C672.425602,494.964927 687.425602,488.795594 708,485.718496 Z" id="Combined-Shape" stroke="#000000" stroke-width="16" fill="#000000"/>    </g>    </g><g id="notion-avatar-glasses">      <!--?xml version="1.0" encoding="UTF-8"?-->    <title>Glasses/ 2</title>    <g id="Glasses/-2" stroke="none" stroke-width="1" fill="none" fill-rule="evenodd" stroke-linecap="round" stroke-linejoin="round">        <path d="M574.189838,502.353993 C586.612079,503.247679 601.018598,506.362134 617.409394,511.697357 C622.107339,513.226543 629.521032,514.112461 639.650474,514.355109 L640.336909,514.337568 C650.115498,514.071859 657.30038,513.191789 661.891553,511.697357 C678.282349,506.362134 692.688868,503.247679 705.11111,502.353993 C722.696433,501.088862 751.030506,503.214809 790.113329,508.731836 L791.300947,508.900056 L791.300947,529.629258 C786.297933,531.828279 783.752241,534.010301 783.663873,536.175322 C781.481852,589.634841 763.639862,606 723.65829,606 C685.15235,606 666.860184,585.095985 650.56058,541.630375 C648.424017,535.932875 644.892754,533.024776 639.966791,532.906078 L639.650474,532.90229 C634.559091,532.90229 630.922389,535.811651 628.740368,541.630375 C612.440763,585.095985 594.148598,606 555.642657,606 C515.661085,606 497.819095,589.634841 495.637074,536.175322 C495.548712,534.010446 493.003357,531.828573 488.00101,529.629702 L488,530 L289,550 L293,541 L487.999,509 L488,508.900056 C527.696939,503.258104 556.426885,501.076083 574.189838,502.353993 Z M564.611618,508.971486 C532.97231,506.789465 518.789172,513.335528 512.243109,520.972603 C505.697045,528.609677 493.695928,595.161324 551.51949,598.434355 C609.343052,601.707387 614.798105,534.06473 611.525073,526.427656 C608.252042,518.790581 596.250925,511.153507 564.611618,508.971486 Z M714.580942,508.971486 C682.941634,511.153507 670.940518,518.790581 667.667486,526.427656 C664.394454,534.06473 669.849507,601.707387 727.673069,598.434355 C785.496631,595.161324 773.495514,528.609677 766.949451,520.972603 C760.403387,513.335528 746.220249,506.789465 714.580942,508.971486 Z" id="Combined-Shape" stroke="#000000" stroke-width="4" fill="#000000"/>    </g>    </g><g id="notion-avatar-hair">      <!--?xml version="1.0" encoding="UTF-8"?-->    <title>Hairstyle/ 11</title>    <g id="Hairstyle/-11" stroke="none" stroke-width="1" fill="none" fill-rule="evenodd" stroke-linecap="round" stroke-linejoin="round">        <path d="M287.145773,564.824988 L328.116663,564.824988 L366,655 C368,609 370.666667,578.666667 374,564 C377.333333,549.333333 386,536 400,524 C404.686858,511.205454 408.020191,498.538788 410,486 C411.979809,473.461212 412.646475,460.794546 412,448 C431.277968,442.027683 448.944635,435.027683 465,427 C481.055365,418.972317 496.055365,409.638984 510,399 C541.018923,414.567133 564.018923,423.900467 579,427 C598.333333,431 625.666667,431 661,427 C677,435 690.333333,444.666667 701,456 C711.666667,467.333333 719.333333,477 724,485 C739.337022,483.068501 749.003689,474.068501 753,458 C758.994467,433.897248 749.308457,421.45399 753,385 C755.461029,360.69734 761.794362,334.364006 772,306 C756.671455,311.760083 745.671455,315.093417 739,316 C713.953321,319.403591 695.432317,316 684,316 C636.89228,316 645,282 615,272 C595,265.333333 574.900668,265.39119 554.702003,272.17357 C537.058392,259.349997 518.824391,250.958807 500,247 C481.175609,243.041193 457.508942,242.041193 429,244 C432.618992,252.559514 429.952325,263.892847 421,278 C407.571512,299.160729 404,300 392,311 C380,322 362,318 347,335 C337,346.333333 333,359.666667 335,375 C327.529566,375.74088 320.196232,377.74088 313,381 C305.803768,384.25912 299.470434,389.592453 294,397 C316.094259,401.247038 325.477218,404.098045 322.148877,405.553022 C298.10323,416.064523 271.638366,440.518688 265,458 C256.983334,479.110894 264.365258,514.719224 287.145773,564.824988 Z" id="Path" stroke="#000000" stroke-width="12" fill="#000000"/>    </g>    </g><g id="notion-avatar-accessories">      <!--?xml version="1.0" encoding="UTF-8"?-->    <title>Accessories/ 0</title>    <g id="Accessories/-0" stroke="none" stroke-width="1" fill="none" fill-rule="evenodd"/>    </g><g id="notion-avatar-details">      <!--?xml version="1.0" encoding="UTF-8"?-->    <title>Details/ 0</title>    <g id="Details/-0" stroke="none" stroke-width="1" fill="none" fill-rule="evenodd"/>    </g><g id="notion-avatar-beard">      <!--?xml version="1.0" encoding="UTF-8"?-->    <title>Beard/ 2</title>    <g id="Beard/-2" stroke="none" stroke-width="1" fill="none" fill-rule="evenodd" stroke-linecap="round" stroke-linejoin="round">        <g id="Group" transform="translate(371.133645, 672.093579)" stroke="#000000" stroke-width="16">            <line x1="266.273341" y1="38.9064208" x2="266.273341" y2="62.9064208" id="Path" transform="translate(266.273341, 50.906421) rotate(5.000000) translate(-266.273341, -50.906421) "/>            <line x1="292.365079" y1="38.9064208" x2="292.365079" y2="62.9064208" id="Path" transform="translate(292.365079, 50.906421) scale(-1, 1) rotate(5.000000) translate(-292.365079, -50.906421) "/>            <line x1="239.557395" y1="40.9064208" x2="239.557395" y2="64.9064208" id="Path" transform="translate(239.557395, 52.906421) rotate(8.000000) translate(-239.557395, -52.906421) "/>            <line x1="319.081025" y1="41.9064208" x2="319.081025" y2="65.9064208" id="Path" transform="translate(319.081025, 53.906421) scale(-1, 1) rotate(8.000000) translate(-319.081025, -53.906421) "/>            <line x1="211.425951" y1="45.8073404" x2="210.217288" y2="63.4360151" id="Path" transform="translate(210.925951, 54.807340) rotate(16.000000) translate(-210.925951, -54.807340) "/>            <line x1="347.507476" y1="50.9064208" x2="347.507476" y2="70.9064208" id="Path" transform="translate(347.507476, 60.906421) scale(-1, 1) rotate(16.000000) translate(-347.507476, -60.906421) "/>            <line x1="181.844559" y1="48.1498621" x2="181.525756" y2="65.6629795" id="Path" transform="translate(182.025756, 56.662979) rotate(19.000000) translate(-182.025756, -56.662979) "/>            <line x1="151.490065" y1="56.7191175" x2="153.222458" y2="74.354276" id="Path" transform="translate(152.696414, 65.497522) rotate(22.000000) translate(-152.696414, -65.497522) "/>            <line x1="122.837706" y1="71.6204191" x2="126.780408" y2="96.0484158" id="Path" transform="translate(124.837706, 84.120419) rotate(22.000000) translate(-124.837706, -84.120419) "/>            <line x1="9.58948596" y1="-1.01442282" x2="5.14322409" y2="11.2015813" id="Path" transform="translate(7.500000, 5.000000) rotate(70.000000) translate(-7.500000, -5.000000) "/>            <line x1="13.9927886" y1="28.4091214" x2="12.0235844" y2="42.5908786" id="Path" transform="translate(13.004093, 35.351932) rotate(70.000000) translate(-13.004093, -35.351932) "/>            <line x1="20.9941812" y1="53.2957181" x2="18.8556925" y2="72.0949718" id="Path" transform="translate(19.994181, 62.795718) rotate(70.000000) translate(-19.994181, -62.795718) "/>            <line x1="28.866355" y1="80.9064208" x2="28.866355" y2="100.906421" id="Path" transform="translate(28.866355, 90.906421) rotate(70.000000) translate(-28.866355, -90.906421) "/>            <line x1="46.1997712" y1="108.632477" x2="50.981151" y2="128.886179" id="Path" transform="translate(48.481151, 118.386179) rotate(70.000000) translate(-48.481151, -118.386179) "/>            <line x1="66.8244792" y1="131.559139" x2="74.1692845" y2="150.617497" id="Path" transform="translate(70.669285, 140.617497) rotate(70.000000) translate(-70.669285, -140.617497) "/>            <line x1="86.8992094" y1="152.384454" x2="97.8335007" y2="167.428388" id="Path" transform="translate(92.333501, 159.428388) rotate(70.000000) translate(-92.333501, -159.428388) "/>            <line x1="114.53737" y1="164.254546" x2="129.592672" y2="175.956143" id="Path" transform="translate(122.092672, 169.956143) rotate(70.000000) translate(-122.092672, -169.956143) "/>            <line x1="146.238529" y1="168.970245" x2="160.954313" y2="178.099239" id="Path" transform="translate(153.454313, 173.099239) rotate(70.000000) translate(-153.454313, -173.099239) "/>            <line x1="174.944456" y1="168.32313" x2="191.788254" y2="177.489712" id="Path" transform="translate(183.288254, 172.489712) rotate(70.000000) translate(-183.288254, -172.489712) "/>            <line x1="204.9014" y1="169.192791" x2="223.711207" y2="173.460538" id="Path" transform="translate(214.271259, 171.040294) rotate(70.000000) translate(-214.271259, -171.040294) "/>            <line x1="234.714972" y1="164.529202" x2="250.464074" y2="165.163612" id="Path" transform="translate(242.733894, 164.396280) rotate(70.000000) translate(-242.733894, -164.396280) "/>            <line x1="260.929106" y1="154.234055" x2="276.136923" y2="153.384181" id="Path" transform="translate(268.630203, 154.095799) rotate(70.000000) translate(-268.630203, -154.095799) "/>            <line x1="286.892662" y1="141.146548" x2="301.056215" y2="139.152378" id="Path" transform="translate(294.049495, 140.363996) rotate(70.000000) translate(-294.049495, -140.363996) "/>        </g>    </g>    </g>      </g>      </svg>